# File created by Blade
# Date/Time:  Wed Apr 08 17:31:45 2015
#---------------------------------------------------------
:version 1.10
:name HOM
:units
  mass 1.0
  length 1.000000
  angle deg
:documentation
     Acclaim Skeleton File
:root
   axis xyz
   order TX TY TZ RX RY RZ
   position 0.000000 0.000000 0.000000
   orientation 0 0 0
:bonedata
   begin
      id 1
      name Spine_dum
      direction 0.000000 1.000000 0.000000
      length 5.893853
      axis 0.0 0.0 0.0 xyz
   end
   begin
      id 2
      name LeftUpLeg_dum
      direction 1.000000 0.000000 0.000000
      length 3.697939
      axis 0.0 0.0 0.0 xyz
   end
   begin
      id 3
      name RightUpLeg_dum
      direction -1.000000 0.000000 0.000000
      length 3.697939
      axis 0.0 0.0 0.0 xyz
   end
   begin
      id 4
      name Spine
      direction 0.000000 1.000000 0.000000
      length 0.000000
      axis 0.0 0.0 0.0 xyz
      dof rx ry rz
   end
   begin
      id 5
      name Spine_dum1
      direction 0.000000 1.000000 0.000000
      length 16.447146
      axis 0.0 0.0 0.0 xyz
   end
   begin
      id 6
      name Spine_dum2
      direction 0.000000 1.000000 0.000000
      length 10.900383
      axis 0.0 0.0 0.0 xyz
   end
   begin
      id 7
      name Spine_dum3
      direction 0.000000 1.000000 0.000000
      length 10.900383
      axis 0.0 0.0 0.0 xyz
   end
   begin
      id 8
      name Head
      direction 0.000000 1.000000 0.000000
      length 4.527550
      axis 0.0 0.0 0.0 xyz
      dof rx ry rz
   end
   begin
      id 9
      name LeftShoulder
      direction 1.000000 0.000000 0.000000
      length 8.219464
      axis 0.0 0.0 -90.0 xyz
      dof rx ry rz
   end
   begin
      id 10
      name LeftArm
      direction 1.000000 0.000000 0.000000
      length 11.094937
      axis 0.0 0.0 -90.0 xyz
      dof rx ry rz
   end
   begin
      id 11
      name LeftForeArm
      direction 1.000000 0.000000 0.000000
      length 9.103875
      axis 0.0 0.0 -90.0 xyz
      dof ry rz rx
   end
   begin
      id 12
      name LeftHand
      direction 0.000000 0.000000 0.000000
      length 0.000000
      axis 0.0 0.0 -90.0 xyz
      dof rx ry rz
   end
   begin
      id 13
      name LeftHand_dum1
      direction 0.000000 0.000000 0.000000
      length 0.000000
      axis 0.0 0.0 -90.0 xyz
   end
   begin
      id 14
      name LeftHand_dum2
      direction 1.000000 0.000000 0.000000
      length 3.937000
      axis 0.0 0.0 -90.0 xyz
   end
   begin
      id 15
      name LeftHandThumb1
      direction 0.000000 0.000000 1.000000
      length 3.937000
      axis 0.0 0.0 -90.0 xyz
      dof rx rz ry
   end
   begin
      id 16
      name RightShoulder
      direction -1.000000 0.000000 0.000000
      length 8.219464
      axis 0.0 0.0 90.0 xyz
      dof rx ry rz
   end
   begin
      id 17
      name RightArm
      direction -1.000000 0.000000 0.000000
      length 11.094937
      axis 0.0 0.0 90.0 xyz
      dof rx ry rz
   end
   begin
      id 18
      name RightForeArm
      direction -1.000000 0.000000 0.000000
      length 9.103875
      axis 0.0 0.0 90.0 xyz
      dof ry rz rx
   end
   begin
      id 19
      name RightHand
      direction 0.000000 0.000000 0.000000
      length 0.000000
      axis 0.0 0.0 90.0 xyz
      dof rx ry rz
   end
   begin
      id 20
      name RightHand_dum1
      direction 0.000000 0.000000 0.000000
      length 0.000000
      axis 0.0 0.0 90.0 xyz
   end
   begin
      id 21
      name RightHand_dum2
      direction -1.000000 0.000000 0.000000
      length 3.937000
      axis 0.0 0.0 90.0 xyz
   end
   begin
      id 22
      name RightHandThumb1
      direction 0.000000 0.000000 1.000000
      length 3.937000
      axis 0.0 0.0 90.0 xyz
      dof rx rz ry
   end
   begin
      id 23
      name LeftUpLeg
      direction 0.000000 -1.000000 0.000000
      length 16.181467
      axis 0.0 0.0 0.0 xyz
      dof rx ry rz
   end
   begin
      id 24
      name LeftLeg
      direction 0.000000 -1.000000 0.000000
      length 16.501392
      axis 0.0 0.0 0.0 xyz
      dof rx ry rz
   end
   begin
      id 25
      name LeftFoot
      direction 0.000000 -0.258819 0.965926
      length 6.408245
      axis 15.0 0.0 0.0 xyz
      dof rx ry rz
   end
   begin
      id 26
      name LeftToeBase
      direction 0.000000 0.000000 1.000000
      length 2.952750
      axis 0.0 0.0 0.0 xyz
      dof rx ry rz
   end
   begin
      id 27
      name RightUpLeg
      direction 0.000000 -1.000000 0.000000
      length 16.181467
      axis 0.0 0.0 0.0 xyz
      dof rx ry rz
   end
   begin
      id 28
      name RightLeg
      direction 0.000000 -1.000000 0.000000
      length 16.501392
      axis 0.0 0.0 0.0 xyz
      dof rx ry rz
   end
   begin
      id 29
      name RightFoot
      direction 0.000000 -0.258819 0.965926
      length 6.408245
      axis 15.0 0.0 0.0 xyz
      dof rx ry rz
   end
   begin
      id 30
      name RightToeBase
      direction 0.000000 0.000000 1.000000
      length 2.952750
      axis 0.0 0.0 0.0 xyz
      dof rx ry rz
   end
:hierarchy
   begin
      root Spine_dum LeftUpLeg_dum RightUpLeg_dum
      Spine_dum Spine
      LeftUpLeg_dum LeftUpLeg
      RightUpLeg_dum RightUpLeg
      Spine Spine_dum1 Spine_dum2 Spine_dum3
      Spine_dum1 Head
      Spine_dum2 LeftShoulder
      Spine_dum3 RightShoulder
      LeftShoulder LeftArm
      LeftArm LeftForeArm
      LeftForeArm LeftHand
      LeftHand LeftHand_dum1 LeftHand_dum2
      LeftHand_dum1 LeftHandThumb1
      RightShoulder RightArm
      RightArm RightForeArm
      RightForeArm RightHand
      RightHand RightHand_dum1 RightHand_dum2
      RightHand_dum1 RightHandThumb1
      LeftUpLeg LeftLeg
      LeftLeg LeftFoot
      LeftFoot LeftToeBase
      RightUpLeg RightLeg
      RightLeg RightFoot
      RightFoot RightToeBase
   end

# File created by Blade
# Date/Time:  Wed Apr 08 17:31:39 2015
# Frame Rate: 120.000 fps
#------------------------------------------------------
:FULLY-SPECIFIED
:DEGREES
368
root 12.053087 19.190380 -0.938309 -553.282188 -87.511087 344.112322
Spine 237.357042 1.024525 -1.185933
Head 22.648854 12.449048 5.402967
LeftShoulder 14.471332 -3.962220 40.330846
LeftArm 52.266439 -16.325237 -32.094512
LeftForeArm 28.779369 0.000000 19.542667
LeftHand -5.937528 -0.000000 -7.507978
LeftHandThumb1 -26.253704 0.000000 33.147579
RightShoulder 8.015754 -23.712929 -46.075537
RightArm 74.481429 26.408686 33.002485
RightForeArm -9.925754 -0.000000 21.862116
RightHand 4.100041 -0.000000 8.418680
RightHandThumb1 -24.326973 -0.000000 -32.862282
LeftUpLeg 124.016033 -8.728865 -10.718555
LeftLeg 113.293514 -0.000000 -0.000000
LeftFoot -31.521219 9.312793 -3.761862
LeftToeBase 0.311736 -0.000000 -0.000000
RightUpLeg 127.882794 16.037165 11.162138
RightLeg 115.305052 -0.000000 -0.000000
RightFoot -38.555900 -2.716076 2.269531
RightToeBase 5.136200 -0.000000 -0.000000
369
root 12.060249 19.184976 -0.945670 -553.765330 -87.440966 344.565893
Spine 237.379426 1.049107 -1.170660
Head 22.715558 12.498894 5.427462
LeftShoulder 14.503321 -4.031394 40.298765
LeftArm 52.345032 -16.122077 -32.331320
LeftForeArm 28.915150 0.000000 19.671440
LeftHand -5.966549 -0.000000 -7.632488
LeftHandThumb1 -26.253704 0.000000 33.147579
RightShoulder 8.014977 -23.780423 -46.095411
RightArm 74.538267 26.329980 32.958954
RightForeArm -9.966778 -0.000000 21.927475
RightHand 4.080445 -0.000000 8.286078
RightHandThumb1 -24.326973 -0.000000 -32.862282
LeftUpLeg 124.000973 -8.701564 -10.705951
LeftLeg 113.286579 -0.000000 -0.000000
LeftFoot -31.496004 9.361203 -3.846517
LeftToeBase 0.378669 -0.000000 -0.000000
RightUpLeg 127.902938 16.062581 11.179715
RightLeg 115.324983 -0.000000 -0.000000
RightFoot -38.572640 -2.755204 2.245476
RightToeBase 5.155016 -0.000000 -0.000000
370
root 12.067110 19.181034 -0.953216 -554.566304 -87.374931 345.334690
Spine 237.403339 1.079508 -1.134627
Head 22.808809 12.547996 5.447619
LeftShoulder 14.525219 -4.060782 40.251946
LeftArm 52.428002 -15.920405 -32.509575
LeftForeArm 28.869138 -0.000000 19.818355
LeftHand -5.912915 0.000000 -7.658637
LeftHandThumb1 -26.253704 0.000000 33.147579
RightShoulder 8.028902 -23.827203 -46.136077
RightArm 74.617280 26.256878 32.993311
RightForeArm -10.010941 -0.000000 22.002941
RightHand 3.973724 -0.000000 8.345577
RightHandThumb1 -24.326973 -0.000000 -32.862282
LeftUpLeg 123.997277 -8.679862 -10.677233
LeftLeg 113.271399 -0.000000 -0.000000
LeftFoot -31.473985 9.382265 -3.882146
LeftToeBase 0.416864 -0.000000 -0.000000
RightUpLeg 127.926082 16.077540 11.218121
RightLeg 115.344670 -0.000000 -0.000000
RightFoot -38.571275 -2.751793 2.251886
RightToeBase 5.139676 -0.000000 -0.000000
371
root 12.072756 19.177489 -0.958806 -554.735400 -87.306921 345.504460
Spine 237.405785 1.120998 -1.116239
Head 22.882222 12.609986 5.468473
LeftShoulder 14.543685 -3.937948 40.208206
LeftArm 52.529241 -15.755741 -32.422078
LeftForeArm 28.549764 -0.000000 20.013732
LeftHand -5.966297 -0.000000 -7.691847
LeftHandThumb1 -26.253704 0.000000 33.147579
RightShoulder 8.041855 -23.853619 -46.183672
RightArm 74.675741 26.196841 33.023445
RightForeArm -10.017455 -0.000000 22.114399
RightHand 4.087134 -0.000000 8.082638
RightHandThumb1 -24.326973 -0.000000 -32.862282
LeftUpLeg 123.952725 -8.652322 -10.655869
LeftLeg 113.268104 -0.000000 -0.000000
LeftFoot -31.449793 9.428590 -3.846525
LeftToeBase 0.437879 -0.000000 -0.000000
RightUpLeg 127.923779 16.121636 11.226330
RightLeg 115.358975 -0.000000 -0.000000
RightFoot -38.583110 -2.787692 2.251217
RightToeBase 5.125536 -0.000000 -0.000000
